<?xml version="1.0" encoding="utf-8"?>
<!-- Generator: Adobe Illustrator 24.1.0, SVG Export Plug-In . SVG Version: 6.00 Build 0)  -->
<svg version="1.1" id="Ebene_1" xmlns="http://www.w3.org/2000/svg" xmlns:xlink="http://www.w3.org/1999/xlink" x="0px" y="0px"
	 viewBox="0 0 431.96 103.06" style="enable-background:new 0 0 431.96 103.06;" xml:space="preserve">
<style type="text/css">
	.st0{fill:none;stroke:#A9CB52;stroke-width:3;stroke-miterlimit:10;}
</style>
<path class="st0" d="M87.4,51.45c0,6.35,0,10.21,0,11.56c-0.5,3.98-1.86,7.28-4.1,9.91c-2.4,2.88-5.46,4.45-9.18,4.7
	C69.32,77.87,63.53,78,56.74,78c-7.12,0-12.95-0.17-17.5-0.51c-3.31-0.25-6.27-1.7-8.88-4.36s-4.01-5.67-4.22-9.04
	c-0.21-3.37-0.31-7.37-0.31-12.01v-0.63c0-6.91,0.04-10.74,0.12-11.5c0.41-3.96,1.73-7.25,3.96-9.86c2.47-2.95,5.56-4.55,9.27-4.8
	c4.78-0.42,10.46-0.63,17.06-0.63h0.37c7,0,12.77,0.17,17.31,0.51c3.38,0.25,6.34,1.71,8.9,4.38c2.55,2.67,3.96,5.72,4.2,9.15
	c0.25,3.43,0.37,7.6,0.37,12.51L87.4,51.45L87.4,51.45z"/>
<g>
	<line class="st0" x1="90.37" y1="29.81" x2="90.37" y2="0.53"/>
	<line class="st0" x1="84.35" y1="24.24" x2="113.28" y2="24.24"/>
</g>
<g>
	<g>
		<line class="st0" x1="22.91" y1="29.81" x2="22.91" y2="0.53"/>
		<line class="st0" x1="28.93" y1="24.24" x2="0" y2="24.24"/>
	</g>
	<g>
		<line class="st0" x1="22.91" y1="72.55" x2="22.91" y2="98.98"/>
		<line class="st0" x1="28.93" y1="78.12" x2="0" y2="78.12"/>
	</g>
</g>
<g>
	<line class="st0" x1="90.37" y1="72.55" x2="90.37" y2="98.98"/>
	<line class="st0" x1="84.35" y1="78.12" x2="113.28" y2="78.12"/>
</g>
<g>
	<path d="M211.09,80.44h-6.7V1.83h6.7V80.44z"/>
	<path d="M313.55,28.36c-1.03,0-2.14,0.28-3.35,0.84c-4.38,1.96-6.61,5.21-6.7,9.77c-0.09,2.51-0.09,4.75,0,6.7
		c0,1.21,0.05,1.96,0.14,2.23v32.54h-6.7c0,0,0.22-34.21,0.11-43.78c-0.11-9.58,9.66-14.58,15.11-14.72h27.26v6.42
		C339.42,28.36,313.55,28.36,313.55,28.36z"/>
	<path d="M347.57,14.12V1.83h6.7v12.29H347.57z M347.57,80.44V23.05h6.7v57.39H347.57z"/>
	<g>
		<path d="M417.89,80.27c0,0-13.25,0.71-20.7,0.71h-0.28c-7.54,0-14.01-0.23-19.41-0.7c-4.19-0.28-7.63-2.04-10.33-5.28
			c-2.42-2.87-3.91-6.49-4.47-10.84c-0.19-1.48-0.28-5.7-0.28-12.65v-0.42c0-3.89,0.14-8.43,0.42-13.62c0.18-3.71,1.74-7,4.67-9.87
			s6.25-4.45,9.96-4.72c5.11-0.37,11.65-0.56,19.64-0.56h0.14c7.15,0,13.65,0.14,19.5,0.42c2.97,0.19,5.76,1.3,8.36,3.35
			c0.09-3.72,0.14-5.82,0.14-6.28c0-1.12-0.05-2-0.14-2.65c0-2.98-0.98-5.52-2.94-7.61s-4.43-3.14-7.42-3.14h-5.63V0h6.85
			c4.12,0,7.57,1.44,10.38,4.33s4.54,6.42,5.19,10.61c0.28,1.77,0.42,5.77,0.42,12.01v29.46c0,7.73-0.75,12.89-2.23,15.5
			C429.73,71.91,427.13,78.88,417.89,80.27z M422.11,32.59c-2.1-2.18-4.64-3.27-7.63-3.27c-12.69-0.09-18.43-0.14-17.22-0.14H379.9
			c-2.99,0-5.53,1.09-7.63,3.27s-3.15,4.76-3.15,7.73v22.83c0,2.97,1.05,5.54,3.15,7.73c2.1,2.18,4.64,3.27,7.63,3.27
			c9.71,0.09,15.49,0.14,17.36,0.14h17.22c2.98,0,5.53-1.09,7.63-3.27s3.15-4.76,3.15-7.72V40.32
			C425.26,37.35,424.21,34.77,422.11,32.59z"/>
	</g>
	<g>
		<path d="M286.55,31.15c1.49,2.61,2.23,7.77,2.23,15.5v29.46c0,6.24-0.14,10.24-0.42,12.01c-0.65,4.19-2.38,7.73-5.19,10.61
			s-6.26,4.33-10.38,4.33h-35.85v-6.42h34.63c2.98,0,5.46-1.05,7.42-3.14c1.96-2.09,2.94-4.63,2.94-7.61
			c0.09-0.65,0.14-1.54,0.14-2.65c0-0.47-0.05-2.56-0.14-6.28c-2.6,2.05-5.39,3.17-8.36,3.35c-5.85,0.28-12.35,0.42-19.5,0.42h-0.14
			c-7.99,0-14.54-0.19-19.64-0.56c-3.72-0.28-7.04-1.85-9.96-4.72s-4.48-6.16-4.67-9.87c-0.28-5.19-0.42-9.72-0.42-13.62v-0.42
			c0-6.95,0.09-11.16,0.28-12.65c0.56-4.35,2.05-7.97,4.47-10.84c2.7-3.24,6.14-5,10.33-5.28c5.4-0.46,11.87-0.7,19.41-0.7h0.28
			c7.45,0,20.7,0.71,20.7,0.71C283.96,24.18,286.55,31.15,286.55,31.15z M282.08,62.74V39.91c0-2.97-1.05-5.54-3.15-7.72
			s-4.64-3.27-7.63-3.27h-17.22c-1.87,0-7.65,0.05-17.36,0.14c-2.99,0-5.53,1.09-7.63,3.27s-3.15,4.76-3.15,7.73v22.83
			c0,2.97,1.05,5.54,3.15,7.73c2.1,2.18,4.64,3.27,7.63,3.27h17.36c-1.21,0,4.53-0.05,17.22-0.14c2.98,0,5.53-1.09,7.63-3.27
			C281.03,68.29,282.08,65.72,282.08,62.74z"/>
	</g>
	<g>
		<path d="M128.94,71.91c-1.49-2.61-2.23-7.77-2.23-15.5V26.95c0-6.24,0.14-10.24,0.42-12.01c0.65-4.19,2.38-7.73,5.19-10.61
			c2.8-2.89,6.26-4.33,10.37-4.33h6.85v6.42h-5.63c-2.98,0-5.46,1.05-7.42,3.14c-1.96,2.09-2.94,4.63-2.94,7.61
			c-0.09,0.65-0.14,1.54-0.14,2.65c0,0.47,0.05,2.56,0.14,6.28c2.6-2.05,5.39-3.17,8.36-3.35c5.85-0.28,12.35-0.42,19.5-0.42h0.14
			c7.99,0,14.54,0.19,19.64,0.56c3.72,0.28,7.04,1.85,9.96,4.72s4.48,6.16,4.67,9.87c0.28,5.19,0.42,9.72,0.42,13.62v0.42
			c0,6.95-0.09,11.16-0.28,12.65c-0.56,4.35-2.05,7.97-4.47,10.84c-2.7,3.24-6.14,5-10.33,5.28c-5.4,0.46-11.87,0.7-19.41,0.7h-0.28
			c-7.45,0-20.7-0.71-20.7-0.71C131.53,78.88,128.94,71.91,128.94,71.91z M133.4,40.32v22.83c0,2.97,1.05,5.54,3.15,7.72
			c2.1,2.18,4.64,3.27,7.63,3.27h17.22c1.87,0,7.65-0.05,17.36-0.14c2.99,0,5.53-1.09,7.63-3.27s3.15-4.76,3.15-7.73V40.18
			c0-2.97-1.05-5.54-3.15-7.73c-2.1-2.18-4.64-3.27-7.63-3.27H161.4c1.21,0-4.53,0.05-17.22,0.14c-2.98,0-5.53,1.09-7.63,3.27
			C134.46,34.77,133.4,37.35,133.4,40.32z"/>
	</g>
</g>
</svg>
